<svg width="24" height="24" viewBox="0 0 24 24" fill="none" xmlns="http://www.w3.org/2000/svg">
<path fill-rule="evenodd" clip-rule="evenodd" d="M19.3599 4.94078C19.0338 4.6161 18.6134 4.4028 18.1588 4.33135C17.7042 4.25991 17.2386 4.33397 16.8286 4.54296C16.8054 4.50986 16.5885 4.27047 16.5033 4.18456C16.0973 3.77949 15.5472 3.552 14.9736 3.552C14.4001 3.552 13.85 3.77949 13.444 4.18456L9.59248 8.03606C9.46048 8.1681 9.38632 8.34716 9.38632 8.53386C9.38632 8.72057 9.46048 8.89963 9.59248 9.03167C9.72559 9.16164 9.90425 9.2344 10.0903 9.2344C10.2763 9.2344 10.455 9.16164 10.5881 9.03167L14.4396 5.18018C14.5813 5.03859 14.7734 4.95905 14.9736 4.95905C15.1739 4.95905 15.366 5.03859 15.5077 5.18018L15.7654 5.43859L14.1988 7.00453C14.1304 7.07316 14.092 7.16607 14.092 7.26294C14.092 7.35981 14.1304 7.45273 14.1988 7.52135L16.78 10.0991C16.8484 10.1674 16.9411 10.2057 17.0378 10.2057C17.1344 10.2057 17.2271 10.1674 17.2955 10.0991L19.3599 8.03465C19.7698 7.62419 20.0001 7.06781 20.0001 6.48771C20.0001 5.90761 19.7698 5.35123 19.3599 4.94078ZM13.4243 8.2951C13.3558 8.22678 13.263 8.18841 13.1663 8.18841C13.0695 8.18841 12.9767 8.22678 12.9082 8.2951L7.11547 14.0892C7.01362 14.1909 6.93282 14.3116 6.87768 14.4445C6.82255 14.5774 6.79417 14.7199 6.79417 14.8638C6.79417 15.0076 6.82255 15.1501 6.87768 15.283C6.93282 15.4159 7.01362 15.5367 7.11547 15.6383L8.66451 17.1873C8.76615 17.2892 8.88687 17.37 9.01978 17.4251C9.15268 17.4802 9.29515 17.5086 9.43904 17.5086C9.58292 17.5086 9.72539 17.4802 9.8583 17.4251C9.9912 17.37 10.1119 17.2892 10.2136 17.1873L16.007 11.3939C16.0753 11.3254 16.1137 11.2326 16.1137 11.1358C16.1137 11.0391 16.0753 10.9463 16.007 10.8778L13.4243 8.2951ZM5.81773 15.9674C5.87463 15.984 5.92642 16.0147 5.9683 16.0566L8.39114 18.4802C8.43309 18.5221 8.46379 18.5739 8.48039 18.6308C8.49699 18.6877 8.49896 18.7478 8.48611 18.8057C8.47326 18.8636 8.44601 18.9172 8.40688 18.9618C8.36776 19.0063 8.31802 19.0402 8.26229 19.0604L4.46995 20.4292C4.4068 20.4509 4.33883 20.4547 4.27367 20.44C4.20851 20.4254 4.14872 20.3928 4.10099 20.3461C4.05373 20.2989 4.02088 20.2392 4.00629 20.1739C3.99171 20.1087 3.99598 20.0407 4.01861 19.9778L5.38811 16.1855C5.40829 16.1298 5.44221 16.08 5.48674 16.0409C5.53126 16.0018 5.58494 15.9745 5.6428 15.9617C5.70066 15.9488 5.76083 15.9508 5.81773 15.9674Z" fill="white" fill-opacity="0.88"/>
</svg>
