<svg width="21" height="21" viewBox="0 0 21 21" fill="none" xmlns="http://www.w3.org/2000/svg">
<rect width="21" height="21" rx="10.5" fill="#202541"/>
<path d="M10.4998 2.5C8.90849 2.5 7.38236 3.13214 6.25715 4.25736C5.13193 5.38258 4.49979 6.9087 4.49979 8.5V12.086L3.79279 12.793C3.65298 12.9329 3.55777 13.111 3.5192 13.305C3.48064 13.4989 3.50044 13.7 3.57611 13.8827C3.65178 14.0654 3.77992 14.2215 3.94433 14.3314C4.10874 14.4413 4.30204 14.5 4.49979 14.5H16.4998C16.6975 14.5 16.8908 14.4413 17.0552 14.3314C17.2197 14.2215 17.3478 14.0654 17.4235 13.8827C17.4991 13.7 17.5189 13.4989 17.4804 13.305C17.4418 13.111 17.3466 12.9329 17.2068 12.793L16.4998 12.086V8.5C16.4998 6.9087 15.8676 5.38258 14.7424 4.25736C13.6172 3.13214 12.0911 2.5 10.4998 2.5ZM10.4998 18.5C9.70414 18.5 8.94108 18.1839 8.37847 17.6213C7.81586 17.0587 7.49979 16.2956 7.49979 15.5H13.4998C13.4998 16.2956 13.1837 17.0587 12.6211 17.6213C12.0585 18.1839 11.2954 18.5 10.4998 18.5Z" fill="white"/>
</svg>
